<svg width="666" height="100" viewBox="0 0 666 100" fill="none" xmlns="http://www.w3.org/2000/svg">
<path d="M97.9708 49.6122C97.9836 49.6089 97.9926 49.5974 97.9926 49.5843C97.9982 40.0999 95.2946 30.864 90.273 22.9586C88.4247 20.0489 84.3875 19.8921 81.9634 22.3428C79.8829 24.4461 79.7468 27.7503 81.2514 30.2976C85.0481 36.7255 86.8913 44.1871 86.482 51.7405C85.9783 61.0352 82.0993 69.815 75.5884 76.3972C69.0774 82.9794 60.3927 86.9009 51.1986 87.4101C43.7738 87.8213 36.4387 85.9837 30.1075 82.1941C27.5247 80.6481 24.1518 80.7872 22.0349 82.9272C19.6405 85.3479 19.7962 89.3248 22.6504 91.1812C28.6704 95.0968 35.4909 97.6418 42.6372 98.604C51.8676 99.8469 61.257 98.3973 69.6998 94.4262C78.1426 90.455 85.2871 84.1276 90.2919 76.189C95.2927 68.2568 97.9492 59.0461 97.9491 49.6401C97.9491 49.6269 97.9581 49.6154 97.9708 49.6122Z" fill="#EF8F76"/>
<path d="M16.1476 76.8032C18.2279 74.7001 18.3708 71.3987 16.8771 68.8454C13.119 62.4213 11.3057 54.9783 11.7303 47.4498C12.2528 38.1824 16.1298 29.4332 22.6224 22.8695C29.115 16.3058 37.7694 12.3865 46.9365 11.8582C54.335 11.4318 61.65 13.2384 67.9761 16.9874C70.5679 18.5233 73.941 18.3772 76.0597 16.2353C78.4577 13.811 78.3099 9.82973 75.4588 7.95932C67.016 2.42065 57.0372 -0.376371 46.8789 0.0407249C34.6161 0.544227 22.9898 5.69458 14.3116 14.4678C5.6334 23.241 0.538823 34.9945 0.0407723 47.3915C-0.370386 57.6256 2.3759 67.6795 7.81709 76.196C9.67617 79.1058 13.7192 79.2581 16.1476 76.8032Z" fill="#8F94FB"/>
<path d="M97.9708 49.6122C97.9836 49.6089 97.9926 49.5974 97.9926 49.5843C97.9982 40.0999 95.2946 30.864 90.273 22.9586C88.4247 20.0489 84.3875 19.8921 81.9634 22.3428C79.8829 24.4461 79.7468 27.7503 81.2514 30.2976C85.0481 36.7255 86.8913 44.1871 86.482 51.7405C85.9783 61.0352 82.0993 69.815 75.5884 76.3972C69.0774 82.9794 60.3927 86.9009 51.1986 87.4101C43.7738 87.8213 36.4387 85.9837 30.1075 82.1941C27.5247 80.6481 24.1518 80.7872 22.0349 82.9272C19.6405 85.3479 19.7962 89.3248 22.6504 91.1812C28.6704 95.0968 35.4909 97.6418 42.6372 98.604C51.8676 99.8469 61.257 98.3973 69.6998 94.4262C78.1426 90.455 85.2871 84.1276 90.2919 76.189C95.2927 68.2568 97.9492 59.0461 97.9491 49.6401C97.9491 49.6269 97.9581 49.6154 97.9708 49.6122Z" fill="#EF8F76"/>
<path d="M16.1476 76.8032C18.2279 74.7001 18.3708 71.3987 16.8771 68.8454C13.119 62.4213 11.3057 54.9783 11.7303 47.4498C12.2528 38.1824 16.1298 29.4332 22.6224 22.8695C29.115 16.3058 37.7694 12.3865 46.9365 11.8582C54.335 11.4318 61.65 13.2384 67.9761 16.9874C70.5679 18.5233 73.941 18.3772 76.0597 16.2353C78.4577 13.811 78.3099 9.82973 75.4588 7.95932C67.016 2.42065 57.0372 -0.376371 46.8789 0.0407249C34.6161 0.544227 22.9898 5.69458 14.3116 14.4678C5.6334 23.241 0.538823 34.9945 0.0407723 47.3915C-0.370386 57.6256 2.3759 67.6795 7.81709 76.196C9.67617 79.1058 13.7192 79.2581 16.1476 76.8032Z" fill="#8F94FB"/>
<path d="M145.088 68.024C141.824 68.024 139.285 66.9893 137.472 64.92C135.659 62.8293 134.752 59.9173 134.752 56.184V41.688H130.368V34.232H134.752V21.944H144.576V34.232H151.776V41.688H144.576V55.48C144.576 56.7173 144.821 57.656 145.312 58.296C145.824 58.936 146.539 59.256 147.456 59.256C148.48 59.256 149.461 58.9147 150.4 58.232L152.864 66.104C151.755 66.7013 150.507 67.1707 149.12 67.512C147.755 67.8533 146.411 68.024 145.088 68.024ZM175.894 68.024C172.886 68.024 170.144 67.2773 167.67 65.784C165.216 64.2693 163.264 62.2 161.814 59.576C160.384 56.9307 159.67 53.9227 159.67 50.552C159.67 47.2667 160.363 44.3227 161.75 41.72C163.136 39.096 165.046 37.0267 167.478 35.512C169.931 33.976 172.736 33.208 175.894 33.208C178.219 33.208 180.384 33.656 182.39 34.552C184.416 35.4267 186.07 36.6533 187.35 38.232V34.232H197.174V67H187.35V62.68C185.856 64.408 184.139 65.7307 182.198 66.648C180.256 67.5653 178.155 68.024 175.894 68.024ZM178.806 59.672C180.512 59.672 182.027 59.288 183.35 58.52C184.672 57.7307 185.707 56.6533 186.454 55.288C187.2 53.9227 187.574 52.3653 187.574 50.616C187.574 48.8453 187.19 47.288 186.422 45.944C185.675 44.5787 184.64 43.512 183.318 42.744C182.016 41.9547 180.512 41.56 178.806 41.56C177.12 41.56 175.616 41.9547 174.294 42.744C172.971 43.512 171.926 44.5787 171.158 45.944C170.39 47.3093 170.006 48.8667 170.006 50.616C170.006 52.3653 170.379 53.9227 171.126 55.288C171.894 56.6533 172.939 57.7307 174.262 58.52C175.584 59.288 177.099 59.672 178.806 59.672ZM209.73 67V11.96H219.554V67H209.73ZM247.849 68.024C244.307 68.024 241.129 67.2667 238.313 65.752C235.518 64.216 233.299 62.136 231.657 59.512C230.014 56.888 229.193 53.9227 229.193 50.616C229.193 48.184 229.651 45.912 230.569 43.8C231.507 41.688 232.809 39.8427 234.473 38.264C236.137 36.664 238.067 35.4267 240.265 34.552C242.462 33.656 244.841 33.208 247.401 33.208C250.814 33.208 253.801 33.9227 256.361 35.352C258.942 36.76 260.947 38.7227 262.377 41.24C263.827 43.7573 264.553 46.6907 264.553 50.04C264.553 50.3173 264.542 50.5627 264.521 50.776C264.521 50.968 264.489 51.3413 264.425 51.896H239.305C239.305 53.56 239.678 55.0107 240.425 56.248C241.193 57.4853 242.259 58.456 243.625 59.16C244.99 59.8427 246.579 60.184 248.393 60.184C250.099 60.184 251.603 59.8533 252.905 59.192C254.227 58.5307 255.497 57.4747 256.713 56.024L263.785 59.576C262.249 62.2213 260.073 64.2907 257.257 65.784C254.441 67.2773 251.305 68.024 247.849 68.024ZM239.657 46.456H254.889C254.675 45.1973 254.217 44.1093 253.513 43.192C252.83 42.2747 251.955 41.5707 250.889 41.08C249.822 40.5893 248.617 40.344 247.273 40.344C245.843 40.344 244.584 40.5893 243.497 41.08C242.409 41.5707 241.534 42.2747 240.873 43.192C240.211 44.1093 239.806 45.1973 239.657 46.456ZM274.292 67V34.232H284.116V37.88C285.375 36.472 286.943 35.3413 288.82 34.488C290.719 33.6347 292.809 33.208 295.092 33.208C297.609 33.208 299.817 33.7627 301.716 34.872C303.636 35.96 305.14 37.4853 306.228 39.448C307.316 41.3893 307.86 43.6613 307.86 46.264V67H298.036V48.344C298.036 45.9973 297.417 44.1733 296.18 42.872C294.964 41.5493 293.289 40.888 291.156 40.888C289.705 40.888 288.447 41.1867 287.38 41.784C286.335 42.36 285.524 43.16 284.948 44.184C284.393 45.1867 284.116 46.328 284.116 47.608V67H274.292ZM330.713 68.024C327.449 68.024 324.91 66.9893 323.097 64.92C321.284 62.8293 320.377 59.9173 320.377 56.184V41.688H315.993V34.232H320.377V21.944H330.201V34.232H337.401V41.688H330.201V55.48C330.201 56.7173 330.446 57.656 330.937 58.296C331.449 58.936 332.164 59.256 333.081 59.256C334.105 59.256 335.086 58.9147 336.025 58.232L338.489 66.104C337.38 66.7013 336.132 67.1707 334.745 67.512C333.38 67.8533 332.036 68.024 330.713 68.024ZM366.23 67V34.232H376.054V37.88C377.675 36.2587 379.286 35.0747 380.886 34.328C382.486 33.5813 384.214 33.208 386.07 33.208C388.587 33.208 390.859 33.7733 392.886 34.904C394.912 36.0347 396.363 37.5493 397.238 39.448C398.838 37.3787 400.555 35.8213 402.39 34.776C404.224 33.7307 406.326 33.208 408.694 33.208C411.062 33.208 413.163 33.6987 414.998 34.68C416.832 35.6613 418.272 37.0587 419.318 38.872C420.384 40.664 420.918 42.7867 420.918 45.24V67H411.094V47.928C411.094 45.7947 410.539 44.12 409.43 42.904C408.32 41.6667 406.838 41.048 404.982 41.048C403.702 41.048 402.571 41.3147 401.59 41.848C400.63 42.3813 399.872 43.096 399.318 43.992C398.763 44.888 398.486 45.88 398.486 46.968V67H388.662V47.736C388.662 45.7093 388.118 44.088 387.03 42.872C385.963 41.656 384.48 41.048 382.582 41.048C381.323 41.048 380.192 41.3147 379.19 41.848C378.208 42.3813 377.44 43.1067 376.885 44.024C376.331 44.9413 376.054 45.9547 376.054 47.064V67H366.23ZM446.644 68.024C443.636 68.024 440.894 67.2773 438.42 65.784C435.966 64.2693 434.014 62.2 432.564 59.576C431.134 56.9307 430.42 53.9227 430.42 50.552C430.42 47.2667 431.113 44.3227 432.5 41.72C433.886 39.096 435.796 37.0267 438.228 35.512C440.681 33.976 443.486 33.208 446.644 33.208C448.969 33.208 451.134 33.656 453.14 34.552C455.166 35.4267 456.82 36.6533 458.1 38.232V34.232H467.924V67H458.1V62.68C456.606 64.408 454.889 65.7307 452.948 66.648C451.006 67.5653 448.905 68.024 446.644 68.024ZM449.556 59.672C451.262 59.672 452.777 59.288 454.1 58.52C455.422 57.7307 456.457 56.6533 457.204 55.288C457.95 53.9227 458.324 52.3653 458.324 50.616C458.324 48.8453 457.94 47.288 457.172 45.944C456.425 44.5787 455.39 43.512 454.068 42.744C452.766 41.9547 451.262 41.56 449.556 41.56C447.87 41.56 446.366 41.9547 445.044 42.744C443.721 43.512 442.676 44.5787 441.908 45.944C441.14 47.3093 440.756 48.8667 440.756 50.616C440.756 52.3653 441.129 53.9227 441.876 55.288C442.644 56.6533 443.689 57.7307 445.012 58.52C446.334 59.288 447.849 59.672 449.556 59.672ZM491.338 68.024C488.074 68.024 485.535 66.9893 483.722 64.92C481.909 62.8293 481.002 59.9173 481.002 56.184V41.688H476.618V34.232H481.002V21.944H490.826V34.232H498.026V41.688H490.826V55.48C490.826 56.7173 491.071 57.656 491.562 58.296C492.074 58.936 492.789 59.256 493.706 59.256C494.73 59.256 495.711 58.9147 496.65 58.232L499.114 66.104C498.005 66.7013 496.757 67.1707 495.37 67.512C494.005 67.8533 492.661 68.024 491.338 68.024ZM523.933 68.024C521.437 68.024 519.079 67.576 516.861 66.68C514.663 65.784 512.722 64.5467 511.036 62.968C509.351 61.368 508.029 59.5227 507.069 57.432C506.109 55.32 505.629 53.0587 505.629 50.648C505.629 48.3227 506.077 46.1147 506.973 44.024C507.89 41.9333 509.17 40.0773 510.812 38.456C512.477 36.8347 514.418 35.5547 516.637 34.616C518.877 33.6773 521.298 33.208 523.901 33.208C526.013 33.208 528.039 33.5067 529.981 34.104C531.943 34.7013 533.522 35.4693 534.717 36.408L531.357 43.032C529.757 41.8587 527.773 41.272 525.405 41.272C523.378 41.272 521.661 41.72 520.253 42.616C518.845 43.512 517.767 44.6747 517.021 46.104C516.295 47.5333 515.933 49.0373 515.933 50.616C515.933 52.344 516.327 53.9227 517.117 55.352C517.906 56.76 519.015 57.88 520.444 58.712C521.895 59.544 523.57 59.96 525.469 59.96C526.642 59.96 527.741 59.8 528.765 59.48C529.789 59.16 530.653 58.7333 531.357 58.2L534.717 64.824C533.501 65.7413 531.933 66.4987 530.013 67.096C528.093 67.7147 526.066 68.024 523.933 68.024ZM543.667 67V11.96H553.491V37.88C554.75 36.472 556.318 35.3413 558.195 34.488C560.094 33.6347 562.184 33.208 564.467 33.208C566.984 33.208 569.192 33.7627 571.091 34.872C573.011 35.96 574.515 37.4853 575.603 39.448C576.691 41.3893 577.235 43.6613 577.235 46.264V67H567.411V48.344C567.411 45.9973 566.792 44.1733 565.555 42.872C564.339 41.5493 562.664 40.888 560.531 40.888C559.08 40.888 557.822 41.1867 556.755 41.784C555.71 42.36 554.899 43.16 554.323 44.184C553.768 45.1867 553.491 46.328 553.491 47.608V67H543.667Z" fill="white"/>
</svg>
