
<svg viewBox="0 0 98.94 100.369" fill="none" xmlns="http://www.w3.org/2000/svg">
  <path d="M97.9708 49.6122C97.9836 49.6089 97.9926 49.5974 97.9926 49.5843C97.9982 40.0999 95.2946 30.864 90.273 22.9586C88.4247 20.0489 84.3875 19.8921 81.9634 22.3428C79.8829 24.4461 79.7468 27.7503 81.2514 30.2976C85.0481 36.7255 86.8913 44.1871 86.482 51.7405C85.9783 61.0352 82.0993 69.815 75.5884 76.3972C69.0774 82.9794 60.3927 86.9009 51.1986 87.4101C43.7738 87.8213 36.4387 85.9837 30.1075 82.1941C27.5247 80.6481 24.1518 80.7872 22.0349 82.9272C19.6405 85.3479 19.7962 89.3248 22.6504 91.1812C28.6704 95.0968 35.4909 97.6418 42.6372 98.604C51.8676 99.8469 61.257 98.3973 69.6998 94.4262C78.1426 90.455 85.2871 84.1276 90.2919 76.189C95.2927 68.2568 97.9492 59.0461 97.9491 49.6401C97.9491 49.6269 97.9581 49.6154 97.9708 49.6122Z" fill="#EF8F76" transform="matrix(1, 0, 0, 1, -3.552713678800501e-15, 0)"/>
  <path d="M16.1476 76.8032C18.2279 74.7001 18.3708 71.3987 16.8771 68.8454C13.119 62.4213 11.3057 54.9783 11.7303 47.4498C12.2528 38.1824 16.1298 29.4332 22.6224 22.8695C29.115 16.3058 37.7694 12.3865 46.9365 11.8582C54.335 11.4318 61.65 13.2384 67.9761 16.9874C70.5679 18.5233 73.941 18.3772 76.0597 16.2353C78.4577 13.811 78.3099 9.82973 75.4588 7.95932C67.016 2.42065 57.0372 -0.376371 46.8789 0.0407249C34.6161 0.544227 22.9898 5.69458 14.3116 14.4678C5.6334 23.241 0.538823 34.9945 0.0407723 47.3915C-0.370386 57.6256 2.3759 67.6795 7.81709 76.196C9.67617 79.1058 13.7192 79.2581 16.1476 76.8032Z" fill="#8F94FB" transform="matrix(1, 0, 0, 1, -3.552713678800501e-15, 0)"/>
  <path d="M97.9708 49.6122C97.9836 49.6089 97.9926 49.5974 97.9926 49.5843C97.9982 40.0999 95.2946 30.864 90.273 22.9586C88.4247 20.0489 84.3875 19.8921 81.9634 22.3428C79.8829 24.4461 79.7468 27.7503 81.2514 30.2976C85.0481 36.7255 86.8913 44.1871 86.482 51.7405C85.9783 61.0352 82.0993 69.815 75.5884 76.3972C69.0774 82.9794 60.3927 86.9009 51.1986 87.4101C43.7738 87.8213 36.4387 85.9837 30.1075 82.1941C27.5247 80.6481 24.1518 80.7872 22.0349 82.9272C19.6405 85.3479 19.7962 89.3248 22.6504 91.1812C28.6704 95.0968 35.4909 97.6418 42.6372 98.604C51.8676 99.8469 61.257 98.3973 69.6998 94.4262C78.1426 90.455 85.2871 84.1276 90.2919 76.189C95.2927 68.2568 97.9492 59.0461 97.9491 49.6401C97.9491 49.6269 97.9581 49.6154 97.9708 49.6122Z" fill="#EF8F76" transform="matrix(1, 0, 0, 1, -3.552713678800501e-15, 0)"/>
  <path d="M16.1476 76.8032C18.2279 74.7001 18.3708 71.3987 16.8771 68.8454C13.119 62.4213 11.3057 54.9783 11.7303 47.4498C12.2528 38.1824 16.1298 29.4332 22.6224 22.8695C29.115 16.3058 37.7694 12.3865 46.9365 11.8582C54.335 11.4318 61.65 13.2384 67.9761 16.9874C70.5679 18.5233 73.941 18.3772 76.0597 16.2353C78.4577 13.811 78.3099 9.82973 75.4588 7.95932C67.016 2.42065 57.0372 -0.376371 46.8789 0.0407249C34.6161 0.544227 22.9898 5.69458 14.3116 14.4678C5.6334 23.241 0.538823 34.9945 0.0407723 47.3915C-0.370386 57.6256 2.3759 67.6795 7.81709 76.196C9.67617 79.1058 13.7192 79.2581 16.1476 76.8032Z" fill="#8F94FB" transform="matrix(1, 0, 0, 1, -3.552713678800501e-15, 0)"/>
</svg>